<svg xmlns="http://www.w3.org/2000/svg" viewBox="0 0 2008.3488 116.72425" width="2008.349" height="116.724" fill-rule="evenodd" stroke-linecap="round" stroke-linejoin="round"><defs><clipPath id="a"><path d="M0 1536h2048V0H0z"/></clipPath></defs><g clip-path="url(#a)" transform="translate(-19.825 -709.64)" fill="none" stroke="#2776bb" stroke-width=".5"><path d="M20.085 709.9l-.007 116.21M20.085 709.9H31.59M31.57 826.065l-11.492.045M31.57 754.968l35.855-45.07M67.425 709.9H78.51M78.51 709.9l-38.203 50.508M31.57 768.424l43.896 57.618M40.307 760.408l49.056 65.646"/></g><g clip-path="url(#a)" transform="translate(-19.825 -709.64)" fill="none" stroke="#2776bb" stroke-width=".5"><circle cx="146.423" cy="767.349" r="45.971"/><circle cx="146.423" cy="767.349" r="57.444"/></g><g clip-path="url(#a)" transform="translate(-19.825 -709.64)" fill="none" stroke="#2776bb" stroke-width=".5"><path d="M209.194 824.82l25.954-103.672M263.782 721.248l25.62 103.572M221.58 824.82l20.57-98.034M256.294 726.737l21.095 98.083M263.782 721.248a14.72 14.72 0 0 0-28.634-.1M256.294 726.737a7.184 7.184 0 0 0-14.144.05"/></g><g clip-path="url(#a)" transform="translate(-19.825 -709.64)" fill="none" stroke="#2776bb" stroke-width=".5"><path d="M392.868 824.8l.064-114.237M392.932 710.563h57.46M450.392 710.563v11.492M450.392 722.055h-45.968M404.424 722.055v34.477M404.424 756.532H438.9M438.9 756.532v11.492M438.9 768.024h-34.476M404.424 768.024l.025 45.31M466.88 801.835l20.17-80.687M515.685 721.248l20.147 80.587M478.37 801.835l15.683-75.05M508.197 726.737l16.143 75.098M515.685 721.248a14.72 14.72 0 0 0-28.634-.1M508.197 726.737a7.184 7.184 0 0 0-14.144.05M466.88 801.835a15.24 15.24 0 0 0-9.758 11.433M457.122 813.268v11.552M457.122 824.82h11.492M468.614 824.82v-11.552M277.39 824.82H289.4M75.466 826.042l13.898.012M209.194 824.82h12.385"/></g><g clip-path="url(#a)" transform="translate(-19.825 -709.64)" fill="none" stroke="#2776bb" stroke-width=".5"><path d="M302.85 824.82l25.958-103.672M357.44 721.248l25.62 103.572M315.232 824.82l20.578-98.034M349.953 726.737l21.1 98.083M357.44 721.248a14.72 14.72 0 0 0-28.632-.1M349.953 726.737a7.184 7.184 0 0 0-14.143.05M371.053 824.82h12.008M302.85 824.82h12.382M545.397 813.448a16.217 16.217 0 0 0-9.565-11.613M545.397 813.448v11.372M545.397 824.82h-11.492M533.905 824.82v-11.372M478.37 801.835h45.97M468.614 813.268l65.29.18M392.868 824.8l56.886-.12M449.754 824.68l-.012-11.352M449.742 813.328l-45.293.006M609.828 709.9l-.007 114.92M609.828 709.9h11.484M621.312 709.9v114.92M621.312 824.82h-11.49M621.312 709.9v57.268M621.312 767.168V755.92M621.312 753.712l34.86-43.813M656.172 709.9h11.114M667.286 709.9L630.05 759.15M621.312 767.168l43.922 57.652M630.05 759.152l49.073 65.668M665.234 824.82h13.89"/></g><g clip-path="url(#a)" transform="translate(-19.825 -709.64)" fill="none" stroke="#2776bb" stroke-width=".5"><path d="M609.826 753.557L575.09 709.9M575.09 709.9h-11.12M563.97 709.9l37.12 49.1M609.826 767.202L565.79 824.82M601.09 759l-49.187 65.82M565.79 824.82h-13.887M31.59 709.9l-.02 45.068M31.57 768.424v57.64M798.942 824.82l25.954-103.672M853.444 719.914l20.303 81.92M811.327 824.82l20.57-98.034M846.042 726.737l17.157 78.848M853.53 721.248a14.72 14.72 0 0 0-28.634-.1M846.042 726.737a7.184 7.184 0 0 0-14.144.05M798.942 824.82h12.385M886.326 801.835l20.545-82.02M935.588 721.282L961.21 824.82M897.54 805.946l16.418-79.16M928.102 726.738l21.095 98.082M935.588 721.282a15.03 15.03 0 0 0-28.717-1.468M928.102 726.738a7.184 7.184 0 0 0-14.144.05M949.197 824.82h12.013M863.2 805.585a17.565 17.565 0 0 0 34.34.36M873.747 801.835a6.583 6.583 0 0 0 12.58 0M975.272 824.82l.07-114.92M975.34 709.9l195.29.293M1074.75 721.39h-87.9M986.85 721.39l-.022 35.16M986.828 756.55h34.472M1021.3 756.55v11.493M1021.3 768.043h-34.472M986.828 768.043l-.043 45.284M975.272 824.82l56.888-.12M1032.16 824.7l-.01-11.338M1032.15 813.33l-45.365-.003M1074.75 721.39v103.43M1074.75 824.82h11.49M1086.24 721.39v103.43M1132.21 824.82h11.49M1143.7 824.82v-57.46M1132.21 755.867v68.953M1132.21 755.867h34.48M1143.7 767.36l26.72-.038M1170.42 767.322a28.666 28.666 0 0 0 .21-57.13M1086.24 721.39h80.45M1166.69 755.867a17.243 17.243 0 1 0 0-34.476"/><circle cx="1270.1" cy="767.376" r="45.971"/><circle cx="1270.1" cy="767.376" r="57.444"/><path d="M1339.07 824.82h11.49M1350.56 824.82V721.39M1350.56 721.39h45.97M1396.53 721.39v103.43M1396.53 824.82h11.49M1408.02 824.82V709.9M1408.02 709.9h-68.95M1339.07 709.9v114.92"/></g><g clip-path="url(#a)" transform="translate(-19.825 -709.64)" fill="none" stroke="#2776bb" stroke-width=".5"><circle cx="1476.96" cy="767.376" r="45.971"/><circle cx="1476.96" cy="767.376" r="57.444"/></g><g clip-path="url(#a)" transform="translate(-19.825 -709.64)" fill="none" stroke="#2776bb" stroke-width=".5"><path d="M1534.44 824.82l25.95-103.672M1589.02 721.248l25.62 103.572M1546.82 824.82l20.57-98.034M1581.54 726.737l21.09 98.083M1589.02 721.248a14.72 14.72 0 0 0-28.63-.1M1581.54 726.737a7.184 7.184 0 0 0-14.15.05M1602.63 824.82h12.01M1534.44 824.82h12.38"/></g><g clip-path="url(#a)" transform="translate(-19.825 -709.64)" fill="none" stroke="#2776bb" stroke-width=".5"><path d="M1626.37 709.9h11.49M1637.86 709.9l.03 86.872M1626.37 709.9v114.92M1626.37 824.82l9.06-.016M1686.68 709.9h8.64M1695.32 709.9v114.92M1695.32 824.82h-11.49M1683.82 737.413l.01 87.407"/></g><g clip-path="url(#a)" transform="translate(-19.825 -709.64)" fill="none" stroke="#2776bb" stroke-width=".5"><path d="M1741.29 824.82h11.49M1752.78 824.82V721.39M1741.29 721.39v103.43M1741.29 721.39h-34.47M1706.82 721.39V709.9M1706.82 709.9h80.44M1787.26 721.39h-34.48"/></g><g clip-path="url(#a)" transform="translate(-19.825 -709.64)" fill="none" stroke="#2776bb" stroke-width=".5"><path d="M1798.75 824.82V709.9M1856.21 709.9l.07 12.174M1856.21 721.39h-45.97M1810.24 721.39v34.477M1810.24 755.867h34.48M1844.72 755.867v11.492M1844.72 767.36h-34.48M1810.24 767.36v45.968M1798.75 824.82h57.46M1856.21 824.82v-11.492M1856.21 813.328h-45.97"/></g><g clip-path="url(#a)" transform="translate(-19.825 -709.64)" fill="none" stroke="#2776bb" stroke-width=".5"><path d="M1867.71 709.9h11.49M1879.2 709.9v45.967M1879.2 755.867h45.97M1925.17 755.867V709.9M1925.17 709.9h11.49M1936.66 709.9v114.92M1936.66 824.82h-11.49M1925.17 824.82v-57.46M1925.17 767.36h-45.97M1879.2 767.36v57.46M1879.2 824.82h-11.49M1867.71 824.82V709.9M1947.71 824.82l25.96-103.672M2002.3 721.248l25.62 103.572M1960.1 824.82l7.23-34.477"/></g><g clip-path="url(#a)" transform="translate(-19.825 -709.64)" fill="none" stroke="#2776bb" stroke-width=".5"><path d="M1994.81 726.737l11.21 52.114M2002.3 721.248a14.72 14.72 0 0 0-28.63-.1M1994.81 726.737a7.184 7.184 0 0 0-14.14.05M2015.91 824.82h12.01M1947.71 824.82h12.39M1967.33 790.343h41.16M1969.74 778.85h36.28M1980.67 726.786l-10.93 52.065M2008.49 790.343l7.42 34.477M1798.75 709.9h57.46M1787.26 709.9v11.49M1681.78 715.148l-41.36 81.608M1639.72 821.106l41.87-83.74M1637.89 796.772a1.4 1.4 0 0 0 2.53-.016M1683.82 737.413a1.248 1.248 0 0 0-2.23-.048M1635.43 824.804a6.93 6.93 0 0 0 4.29-3.698M1686.68 709.9a10.22 10.22 0 0 0-4.9 5.248"/></g><path d="M780.885 111.925c.49-1.628 6.445-25.217 13.232-52.418 6.787-27.2 13.012-50.714 13.835-52.25.822-1.538 3.773-3.74 6.556-4.892 4.27-1.77 5.89-1.7 10.378.44 2.926 1.395 6.16 4.618 7.186 7.162 1.027 2.543 6.265 22.563 11.64 44.49 10.85 44.263 12.8 48.11 20.816 41.083 2.405-2.107 5.906-13.63 13.47-44.34 5.622-22.82 10.993-42.75 11.937-44.29 4.14-6.757 15.815-7.364 21.468-1.117 1.727 1.908 7.747 23.112 15.552 54.77 7.004 28.41 12.746 52.204 12.76 52.876.015.67-2.17 1.22-4.855 1.22-2.685 0-4.88-.29-4.88-.643 0-4.237-21.676-99.722-23-101.317-2.824-3.402-9.2-2.6-11.787 1.484-1.275 2.014-6.035 21.767-10.578 43.897-4.543 22.13-9.156 41.673-10.252 43.428-6.2 9.927-22.68 9.258-27.952-1.135-1.234-2.434-6.154-22.65-10.933-44.92-4.778-22.274-9.685-41.494-10.904-42.713-2.76-2.76-9.484-2.89-11.244-.22-.725 1.1-6.077 24.347-11.894 51.662l-10.576 49.663-5.434.52c-4.612.443-5.3.074-4.54-2.44zM956.012 57.71V.76l96.407.01c62.252.01 98.583.614 102.552 1.717 13.58 3.77 21.857 16.184 20.257 30.382-.937 8.304-4.748 14.238-12.557 19.553-4.723 3.214-7.434 3.66-22.223 3.66h-16.844v58.577h-9.762V46.216l19.73.216c22.714.25 26.584-1.338 30.542-12.526 2.02-5.717 1.962-7.08-.533-12.337-4.95-10.43-8.072-11.046-56.088-11.046h-42.466V114.66h-9.762V10.524H965.775v37.424h34.17v9.763h-34.17v47.187h45.56v9.762h-55.322V57.71zM1235.877 112.15c-24.216-6.73-42.305-30.01-42.305-54.44 0-17.15 10.534-36.847 24.732-46.245 17.256-11.422 37.04-13.16 55.088-4.838 35.934 16.565 44.18 63.88 15.91 91.27-14.044 13.61-35.323 19.285-53.425 14.253zm35.396-12.78c34.862-17.816 33.744-68.325-1.865-84.22-11.52-5.142-28.118-5.125-38.783.04-15.51 7.51-27.29 25.865-27.29 42.52 0 20.05 15.934 40.673 35.128 45.462 9.536 2.38 23.994.705 32.81-3.8zM1320.487 57.71V.76h66.712v113.9h-9.764V10.522h-47.186V114.66h-9.762V57.71zM1442.52 112.066c-38.35-10.194-54.177-56.746-30.048-88.386 29.94-39.26 90.43-24.034 100.33 25.252 5.398 26.887-13.81 55.98-41.74 63.215-11.734 3.04-16.858 3.025-28.54-.08zm34.597-12.204c9.49-4.752 16.98-12.176 22.003-21.813 6.054-11.616 6.054-29.065 0-40.68-5.06-9.71-12.46-17.005-22.43-22.11-10.825-5.547-28.69-5.317-39.967.514-9.43 4.875-18.918 14.656-22.888 23.595-4.206 9.47-3.772 28.6.868 38.198 4.036 8.35 15.472 19.865 22.542 22.698 13.567 5.435 28.513 5.284 39.872-.404zM1515.92 112.264c.328-1.108 6.36-24.75 13.407-52.54 7.045-27.79 13.55-51.656 14.454-53.036 3.93-5.995 14.437-7.037 20.084-1.99 3.373 3.012 4.182 5.71 16.126 53.787 6.915 27.838 12.843 51.78 13.17 53.204.553 2.39.202 2.587-4.6 2.587-2.86 0-5.21-.13-5.223-.287-.013-.16-4.88-22.78-10.815-50.27-11.42-52.877-11.458-52.992-17.925-52.992-6.396 0-6.427.094-17.598 53.24l-10.575 50.31h-5.55c-4.748 0-5.466-.292-4.955-2.014zM1607.522 57.9V1.524h9.204V15.72c0 33.042 1.532 73.31 2.774 72.937.69-.207 11.09-19.767 23.114-43.467l21.86-43.09 4.89-.355 4.89-.354v112.887h-9.203v-43.72c0-38.06-.224-43.72-1.724-43.72-1.115 0-9.07 14.71-22.556 41.706-11.458 22.94-21.636 42.613-22.617 43.72-1.115 1.26-3.44 2.014-6.207 2.014h-4.424V57.9zM1722.576 62.503V10.728h-34.516V1.524h78.237v9.204h-34.518v103.549h-9.204V62.503zM1780.104 57.9V1.524h55.226v9.204h-46.08l.317 17.952.317 17.952 16.97-.17 16.97-.173v10.46h-34.516v47.172H1835.33v10.355h-55.226V57.9zM1849.137 57.9V1.524h9.202v44.87h23.012c12.656 0 23.4.13 23.874.288.474.158 1.003-9.938 1.175-22.436l.313-22.723h9.156v112.753h-9.164l-.308-28.476-.307-28.475-23.875-.31-23.874-.312v57.574h-9.203V57.9zM1941.923 61.64c12.888-51.7 13.192-52.704 17.103-56.377 3.304-3.103 4.884-3.74 9.29-3.74 4.46 0 5.91.6 9.056 3.747 3.58 3.58 4.317 6.058 16.568 55.772 7.052 28.614 12.82 52.298 12.82 52.63.002.333-2.328.605-5.176.605-2.848 0-5.177-.24-5.177-.535 0-.294-1.554-7.82-3.452-16.723-1.898-8.904-3.452-16.43-3.452-16.724 0-.294-9.568-.535-21.263-.535-21.108 0-21.267.02-21.856 2.59-1.432 6.25-6.343 30.283-6.348 31.064 0 .475-2.532.863-5.62.863h-5.614l13.12-52.637zm42.997-1.726c-1.13-5.22-3.763-17.484-5.85-27.25-4.068-19.02-5.564-21.936-11.25-21.936-5.777 0-6.944 2.815-12.936 31.205-3.107 14.724-5.65 26.928-5.65 27.122 0 .193 8.492.35 18.87.35h18.87l-2.053-9.49zM1.36 58.476V1.524h9.203V23.96c0 12.34.388 22.41.863 22.377.475-.032 8.79-10.127 18.478-22.435L47.518 1.524h9.267L53.52 5.86c-1.794 2.383-10.148 13.463-18.564 24.62l-15.3 20.288L43.298 82.52C56.3 99.986 66.94 114.534 66.94 114.85c0 .318-2.504.578-5.563.578h-5.563L34.05 86.703C22.083 70.903 11.9 57.96 11.427 57.94c-.475-.022-.863 12.904-.863 28.724v28.764H1.36V58.476zM111.015 112.075C86.56 105.08 70.392 83.19 70.392 57.08c0-15.376 4.446-26.386 15.337-37.978C96.942 7.166 109.86 1.514 125.87 1.537c16.91.024 29.248 5.052 40.57 16.53 11.027 11.18 16.705 24.392 16.705 38.868 0 38.036-35.925 65.498-72.13 55.14zm35.316-12.31c9.58-4.493 17.778-12.68 22.34-22.302 3.292-6.95 3.545-8.383 3.542-20.138-.003-11.662-.27-13.198-3.38-19.56-6.79-13.87-19.977-23.527-35.695-26.13-29.73-4.928-57.548 22.986-52.61 52.79 2.92 17.61 14.05 31.232 30.512 37.337 4.665 1.73 8.306 2.132 16.88 1.86 9.353-.297 12.008-.853 18.41-3.857zM203.433 61.888c7.21-28.813 13.705-53.346 14.436-54.516 2.148-3.442 7.273-5.848 12.452-5.848 3.913 0 5.537.71 8.57 3.742 3.57 3.57 4.306 6.038 16.043 53.788 6.766 27.525 12.594 51.21 12.95 52.635.604 2.403.272 2.587-4.652 2.587-2.916 0-5.302-.186-5.302-.415 0-.926-19.74-92.52-20.797-96.5-1.215-4.574-3.788-6.634-8.287-6.634-5.642 0-6.434 2.467-17.08 53.15-5.616 26.745-10.212 49.026-10.212 49.513 0 .49-2.526.887-5.614.887h-5.614l13.107-52.39zM284.426 113.414c.018-.474 5.94-24.42 13.163-53.212 12.446-49.627 13.313-52.515 16.667-55.514 6.706-5.997 19.097-3.1 21.775 5.088.69 2.106 6.883 26.48 13.764 54.165l12.512 50.337-5.304-.01-5.304-.01-10.642-49.66c-6.917-32.283-11.308-50.4-12.546-51.768-2.435-2.69-8.684-2.743-11.02-.092-1.07 1.215-5.737 20.966-11.757 49.762-5.49 26.26-10.244 48.653-10.562 49.76-.44 1.528-1.81 2.014-5.68 2.014-2.805 0-5.085-.388-5.067-.863zM374.136 57.9V1.524H429.36V11.88H383.34v35.666h34.518V57.9H383.34V103.922H429.362v10.355H374.135V57.9zM438.566 107.196c0-6.806.186-7.258 4.768-11.617l4.768-4.537 10.216-40.813c5.618-22.448 10.987-41.992 11.93-43.432C474.297.62 484.71-.394 490.543 4.82c3.515 3.14 4.184 5.266 14.217 45.16l10.528 41.862 4.785 4.754c4.48 4.452 4.784 5.165 4.784 11.218v6.463h-10.354V102.772H447.77V114.277h-9.204v-7.08zm66.17-17.368c-.332-1.424-3.964-18.38-8.07-37.68-4.105-19.3-7.967-36.243-8.58-37.65-2.27-5.194-11.55-4.835-13.66.53-1.13 2.87-16.3 73.957-16.3 76.377 0 .556 10.623 1.012 23.608 1.012h23.608l-.605-2.59zM534.927 112.84c.63-.792 11.12-14.9 23.308-31.353 12.19-16.453 22.563-30.432 23.054-31.065.503-.65-6.352-10.672-15.74-23.01C544.606-.122 545.53 1.52 550.993 1.53c4.27.01 4.682.416 21.377 21.408l17.02 21.403-.338 6.797-.34 6.796-21.284 28.11-21.285 28.11-6.182.06c-4.794.048-5.923-.26-5.033-1.377zM601.03 86.376c-.13-15.66.152-28.476.626-28.477.475-.002.73 8.41.567 18.695-.554 35.014-.956 38.306-1.193 9.78zM590.44 57.9V1.524h10.354v112.753H590.44V57.9zM623.798 85.505l-21.968-28.77.345-6.356c.34-6.274.558-6.627 17.027-27.523L635.885 1.69l4.85-.083 4.85-.083L627.69 25.17c-10.456 13.815-17.636 24.315-17.274 25.26.34.887 10.64 14.97 22.888 31.293 12.247 16.323 22.658 30.326 23.135 31.117.647 1.074-.592 1.438-4.904 1.438h-5.77L623.8 85.506z" fill="navy"/><path d="M536.363 112.498c0-.346 9.5-13.42 21.114-29.052 11.612-15.632 21.813-29.555 22.668-30.94 2.064-3.343 1.74-3.898-16.335-28.15-8.135-10.914-14.79-20.517-14.79-21.338 0-2.372 2.977-1.744 6.737 1.42 1.905 1.603 10.166 11.31 18.358 21.573l14.895 18.66-.724 6.942c-.715 6.864-.96 7.256-21.39 34.23l-20.665 27.285h-4.933c-2.714 0-4.934-.283-4.934-.63z" fill="navy"/></svg>