<svg xmlns="http://www.w3.org/2000/svg" viewBox="0 0 2008.3488 116.72425" width="2008.349" height="116.724" fill-rule="evenodd" stroke-linecap="round" stroke-linejoin="round"><defs><clipPath id="a"><path d="M0 1536h2048V0H0z"/></clipPath></defs><g clip-path="url(#a)" transform="translate(-19.825 -709.64)" fill="none" stroke="#2776bb" stroke-width=".5"><path d="M20.085 709.9l-.007 116.21M20.085 709.9H31.59M31.57 826.065l-11.492.045M31.57 754.968l35.855-45.07M67.425 709.9H78.51M78.51 709.9l-38.203 50.508M31.57 768.424l43.896 57.618M40.307 760.408l49.056 65.646"/></g><g clip-path="url(#a)" transform="translate(-19.825 -709.64)" fill="none" stroke="#2776bb" stroke-width=".5"><circle cx="146.423" cy="767.349" r="45.971"/><circle cx="146.423" cy="767.349" r="57.444"/></g><g clip-path="url(#a)" transform="translate(-19.825 -709.64)" fill="none" stroke="#2776bb" stroke-width=".5"><path d="M209.194 824.82l25.954-103.672M263.782 721.248l25.62 103.572M221.58 824.82l20.57-98.034M256.294 726.737l21.095 98.083M263.782 721.248a14.72 14.72 0 0 0-28.634-.1M256.294 726.737a7.184 7.184 0 0 0-14.144.05"/></g><g clip-path="url(#a)" transform="translate(-19.825 -709.64)" fill="none" stroke="#2776bb" stroke-width=".5"><path d="M392.868 824.8l.064-114.237M392.932 710.563h57.46M450.392 710.563v11.492M450.392 722.055h-45.968M404.424 722.055v34.477M404.424 756.532H438.9M438.9 756.532v11.492M438.9 768.024h-34.476M404.424 768.024l.025 45.31M466.88 801.835l20.17-80.687M515.685 721.248l20.147 80.587M478.37 801.835l15.683-75.05M508.197 726.737l16.143 75.098M515.685 721.248a14.72 14.72 0 0 0-28.634-.1M508.197 726.737a7.184 7.184 0 0 0-14.144.05M466.88 801.835a15.24 15.24 0 0 0-9.758 11.433M457.122 813.268v11.552M457.122 824.82h11.492M468.614 824.82v-11.552M277.39 824.82H289.4M75.466 826.042l13.898.012M209.194 824.82h12.385"/></g><g clip-path="url(#a)" transform="translate(-19.825 -709.64)" fill="none" stroke="#2776bb" stroke-width=".5"><path d="M302.85 824.82l25.958-103.672M357.44 721.248l25.62 103.572M315.232 824.82l20.578-98.034M349.953 726.737l21.1 98.083M357.44 721.248a14.72 14.72 0 0 0-28.632-.1M349.953 726.737a7.184 7.184 0 0 0-14.143.05M371.053 824.82h12.008M302.85 824.82h12.382M545.397 813.448a16.217 16.217 0 0 0-9.565-11.613M545.397 813.448v11.372M545.397 824.82h-11.492M533.905 824.82v-11.372M478.37 801.835h45.97M468.614 813.268l65.29.18M392.868 824.8l56.886-.12M449.754 824.68l-.012-11.352M449.742 813.328l-45.293.006M609.828 709.9l-.007 114.92M609.828 709.9h11.484M621.312 709.9v114.92M621.312 824.82h-11.49M621.312 709.9v57.268M621.312 767.168V755.92M621.312 753.712l34.86-43.813M656.172 709.9h11.114M667.286 709.9L630.05 759.15M621.312 767.168l43.922 57.652M630.05 759.152l49.073 65.668M665.234 824.82h13.89"/></g><g clip-path="url(#a)" transform="translate(-19.825 -709.64)" fill="none" stroke="#2776bb" stroke-width=".5"><path d="M609.826 753.557L575.09 709.9M575.09 709.9h-11.12M563.97 709.9l37.12 49.1M609.826 767.202L565.79 824.82M601.09 759l-49.187 65.82M565.79 824.82h-13.887M31.59 709.9l-.02 45.068M31.57 768.424v57.64M798.942 824.82l25.954-103.672M853.444 719.914l20.303 81.92M811.327 824.82l20.57-98.034M846.042 726.737l17.157 78.848M853.53 721.248a14.72 14.72 0 0 0-28.634-.1M846.042 726.737a7.184 7.184 0 0 0-14.144.05M798.942 824.82h12.385M886.326 801.835l20.545-82.02M935.588 721.282L961.21 824.82M897.54 805.946l16.418-79.16M928.102 726.738l21.095 98.082M935.588 721.282a15.03 15.03 0 0 0-28.717-1.468M928.102 726.738a7.184 7.184 0 0 0-14.144.05M949.197 824.82h12.013M863.2 805.585a17.565 17.565 0 0 0 34.34.36M873.747 801.835a6.583 6.583 0 0 0 12.58 0M975.272 824.82l.07-114.92M975.34 709.9l195.29.293M1074.75 721.39h-87.9M986.85 721.39l-.022 35.16M986.828 756.55h34.472M1021.3 756.55v11.493M1021.3 768.043h-34.472M986.828 768.043l-.043 45.284M975.272 824.82l56.888-.12M1032.16 824.7l-.01-11.338M1032.15 813.33l-45.365-.003M1074.75 721.39v103.43M1074.75 824.82h11.49M1086.24 721.39v103.43M1132.21 824.82h11.49M1143.7 824.82v-57.46M1132.21 755.867v68.953M1132.21 755.867h34.48M1143.7 767.36l26.72-.038M1170.42 767.322a28.666 28.666 0 0 0 .21-57.13M1086.24 721.39h80.45M1166.69 755.867a17.243 17.243 0 1 0 0-34.476"/><circle cx="1270.1" cy="767.376" r="45.971"/><circle cx="1270.1" cy="767.376" r="57.444"/><path d="M1339.07 824.82h11.49M1350.56 824.82V721.39M1350.56 721.39h45.97M1396.53 721.39v103.43M1396.53 824.82h11.49M1408.02 824.82V709.9M1408.02 709.9h-68.95M1339.07 709.9v114.92"/></g><g clip-path="url(#a)" transform="translate(-19.825 -709.64)" fill="none" stroke="#2776bb" stroke-width=".5"><circle cx="1476.96" cy="767.376" r="45.971"/><circle cx="1476.96" cy="767.376" r="57.444"/></g><g clip-path="url(#a)" transform="translate(-19.825 -709.64)" fill="none" stroke="#2776bb" stroke-width=".5"><path d="M1534.44 824.82l25.95-103.672M1589.02 721.248l25.62 103.572M1546.82 824.82l20.57-98.034M1581.54 726.737l21.09 98.083M1589.02 721.248a14.72 14.72 0 0 0-28.63-.1M1581.54 726.737a7.184 7.184 0 0 0-14.15.05M1602.63 824.82h12.01M1534.44 824.82h12.38"/></g><g clip-path="url(#a)" transform="translate(-19.825 -709.64)" fill="none" stroke="#2776bb" stroke-width=".5"><path d="M1626.37 709.9h11.49M1637.86 709.9l.03 86.872M1626.37 709.9v114.92M1626.37 824.82l9.06-.016M1686.68 709.9h8.64M1695.32 709.9v114.92M1695.32 824.82h-11.49M1683.82 737.413l.01 87.407"/></g><g clip-path="url(#a)" transform="translate(-19.825 -709.64)" fill="none" stroke="#2776bb" stroke-width=".5"><path d="M1741.29 824.82h11.49M1752.78 824.82V721.39M1741.29 721.39v103.43M1741.29 721.39h-34.47M1706.82 721.39V709.9M1706.82 709.9h80.44M1787.26 721.39h-34.48"/></g><g clip-path="url(#a)" transform="translate(-19.825 -709.64)" fill="none" stroke="#2776bb" stroke-width=".5"><path d="M1798.75 824.82V709.9M1856.21 709.9l.07 12.174M1856.21 721.39h-45.97M1810.24 721.39v34.477M1810.24 755.867h34.48M1844.72 755.867v11.492M1844.72 767.36h-34.48M1810.24 767.36v45.968M1798.75 824.82h57.46M1856.21 824.82v-11.492M1856.21 813.328h-45.97"/></g><g clip-path="url(#a)" transform="translate(-19.825 -709.64)" fill="none" stroke="#2776bb" stroke-width=".5"><path d="M1867.71 709.9h11.49M1879.2 709.9v45.967M1879.2 755.867h45.97M1925.17 755.867V709.9M1925.17 709.9h11.49M1936.66 709.9v114.92M1936.66 824.82h-11.49M1925.17 824.82v-57.46M1925.17 767.36h-45.97M1879.2 767.36v57.46M1879.2 824.82h-11.49M1867.71 824.82V709.9M1947.71 824.82l25.96-103.672M2002.3 721.248l25.62 103.572M1960.1 824.82l7.23-34.477"/></g><g clip-path="url(#a)" transform="translate(-19.825 -709.64)" fill="none" stroke="#2776bb" stroke-width=".5"><path d="M1994.81 726.737l11.21 52.114M2002.3 721.248a14.72 14.72 0 0 0-28.63-.1M1994.81 726.737a7.184 7.184 0 0 0-14.14.05M2015.91 824.82h12.01M1947.71 824.82h12.39M1967.33 790.343h41.16M1969.74 778.85h36.28M1980.67 726.786l-10.93 52.065M2008.49 790.343l7.42 34.477M1798.75 709.9h57.46M1787.26 709.9v11.49M1681.78 715.148l-41.36 81.608M1639.72 821.106l41.87-83.74M1637.89 796.772a1.4 1.4 0 0 0 2.53-.016M1683.82 737.413a1.248 1.248 0 0 0-2.23-.048M1635.43 824.804a6.93 6.93 0 0 0 4.29-3.698M1686.68 709.9a10.22 10.22 0 0 0-4.9 5.248"/></g><path d="M.588 58.423V.693h10.824v22.49c0 17.84.062 22.488.3 22.476.166-.01 8.04-9.762 17.5-21.676C38.67 12.07 46.733 1.954 47.13 1.5l.72-.826 4.986.07 4.984.07-18.887 24.97-18.887 24.97 8.292 11.11c4.56 6.11 15.53 20.8 24.378 32.64l16.086 21.527-6.357.065c-3.72.037-6.47-.03-6.627-.162-.15-.125-10.066-13.11-22.038-28.853-11.973-15.745-21.904-28.634-22.07-28.642-.238-.012-.3 5.91-.3 28.85v28.863H.588V58.424zM120.013 114.428c-7.72-.87-17.04-4.13-23.517-8.222-12.422-7.85-21.36-19.94-25.083-33.93-1.245-4.677-1.575-7.16-1.717-12.912-.197-7.962.487-12.748 2.832-19.812 6.95-20.936 25.91-36.22 47.897-38.604 3.41-.37 9.688-.31 13.29.127 3.617.44 9.317 1.828 12.773 3.112 5.086 1.89 10.89 5.163 15.5 8.738 2.552 1.98 7.13 6.516 9.14 9.057 6.214 7.854 10.252 17.043 11.944 27.18.628 3.767.628 13.31 0 17.078-1.48 8.866-4.42 16.3-9.326 23.572-9.232 13.69-24.452 22.856-40.915 24.642-2.747.3-10.072.283-12.817-.026zm13.35-10.937c18.42-2.652 33.606-16.387 38.13-34.484 1.787-7.15 1.787-15.46 0-22.61-4.53-18.123-19.634-31.747-38.26-34.513-3.395-.504-9.79-.505-13.244-.002-19.442 2.832-34.964 17.552-38.805 36.8-.814 4.083-1.086 8.52-.758 12.37.99 11.622 5.458 21.36 13.474 29.378 10.465 10.463 24.73 15.185 39.463 13.063zM189.89 114.746c0-.112 5.895-23.735 13.102-52.497 10.588-42.254 13.255-52.595 13.89-53.858 1.692-3.36 5.55-6.388 9.392-7.372 2.066-.53 5.985-.335 8.08.4 3.887 1.368 7.216 4.62 8.64 8.447.46 1.234 26.03 104.206 26.03 104.824 0 .19-1.624.248-5.587.203l-5.588-.065-10.617-49.36c-5.838-27.15-10.753-49.695-10.922-50.102-1.977-4.776-8.59-6.037-12.218-2.33-.542.554-1.2 1.495-1.46 2.09-.262.596-5.09 23.11-10.732 50.032-5.642 26.92-10.312 49.138-10.378 49.37-.11.385-.6.42-5.877.42-3.166 0-5.756-.09-5.756-.202zM283.463 114.892c.004-.035 5.897-23.604 13.096-52.375C311.242 3.835 310.03 8.037 313.17 4.88 315.9 2.14 319.39.69 323.256.7c4.003.007 7.28 1.363 10.138 4.196 3.153 3.125 2.018-.85 16.462 57.618 7.043 28.51 12.856 51.97 12.917 52.136.088.235-1.118.3-5.54.3h-5.652l-.145-.576c-.08-.318-4.853-22.48-10.608-49.25-5.755-26.77-10.632-49.124-10.838-49.675-.545-1.457-2.086-3.08-3.653-3.846-3.492-1.707-8.214-.213-9.883 3.128-.392.786-3.56 15.428-10.943 50.603l-10.39 49.498-5.832.064c-3.207.036-5.83.036-5.825 0zM373.417 57.942V1.175h56.766v10.822l-22.91.06-22.912.063V47.238l17.14.062 17.137.06V57.94L401.5 58l-17.14.062v45.942l22.55.06 22.55.063v10.58h-56.043V57.943zM437.64 109.168c0-6.392.148-7.252 1.744-10.095 1.14-2.032 4.045-4.766 6.19-5.83l1.803-.893L457.64 51.3c11.537-46.134 10.704-43.33 13.783-46.408 2.786-2.786 6.14-4.193 9.994-4.19 4.116 0 7.354 1.33 10.245 4.21 3.064 3.048 2.236.262 13.772 46.394L515.7 92.362l1.297.71c3.74 2.044 6.22 4.906 7.637 8.81.528 1.454.56 1.874.56 7.304v5.762H514.37v-11.545h-32.713c-17.992 0-32.794-.027-32.893-.06-.1-.034-.21 2.564-.245 5.772l-.065 5.833H437.64v-5.78zm67.108-17.08c0-.78-16.087-75.53-16.494-76.64-.533-1.456-2.073-3.077-3.66-3.855-1.156-.567-1.677-.674-3.298-.674-1.62 0-2.14.106-3.298.673-1.714.84-3.186 2.474-3.698 4.106-.517 1.643-16.168 76.467-16.044 76.698.054.1 10.537.18 23.295.18 23.187 0 23.198 0 23.198-.49zM532.89 114.823c0-.09 43.61-58.57 48.266-64.72l.562-.744-13.26-17.538-18.4-24.333-5.136-6.796H555.167l17.245 21.685 17.245 21.683v13.369L568.1 85.65c-11.854 15.518-21.777 28.46-22.05 28.757-.49.535-.567.54-6.827.54-3.482 0-6.332-.055-6.332-.124zM590.38 57.82V.695h10.823V114.95H590.38V57.82zM644.56 113.445c-.65-.827-10.51-13.752-21.91-28.722l-20.725-27.22v-13.4l17.218-21.645L636.36.815l5.166-.065 5.165-.065-6.955 9.205-18.413 24.36c-6.3 8.333-11.455 15.207-11.454 15.273.002.066 10.93 14.733 24.285 32.592 13.355 17.86 24.285 32.554 24.29 32.653.004.1-2.852.18-6.346.18h-6.354l-1.183-1.503zM779.68 114.705c0-.134 5.85-23.65 13.003-52.256C803.42 19.5 805.836 10.12 806.548 8.63c1.136-2.376 4.035-5.32 6.334-6.434 4.042-1.957 8.66-2.032 12.62-.204 3.267 1.508 6.504 5.122 7.452 8.322.098.33.325.926.505 1.323.18.396 4.768 18.688 10.197 40.65 5.428 21.96 10.072 40.364 10.32 40.898.676 1.452 1.633 2.467 3.006 3.187 1.055.554 1.524.647 3.276.647 1.644 0 2.238-.103 3.038-.528 1.254-.667 2.378-1.784 2.977-2.958.255-.5 5.132-19.512 10.837-42.246 7.906-31.506 10.553-41.707 11.132-42.897 1.056-2.175 4.05-5.167 6.19-6.188 2.6-1.24 4.296-1.576 7.317-1.454 4.262.173 7.333 1.525 10.173 4.478 2.694 2.802 1.81-.348 16.05 57.208 7.076 28.6 12.865 52.117 12.865 52.26 0 .182-1.693.242-5.59.197l-5.59-.065-10.62-49.43c-11.71-54.49-10.893-51.213-13.192-52.957-1.43-1.084-2.895-1.53-4.937-1.5-2.814.038-5.37 1.692-6.468 4.186-.262.596-4.22 19.16-8.798 41.252-4.577 22.093-8.53 40.802-8.787 41.575-1.306 3.94-4.717 7.88-8.42 9.725-2.905 1.446-4.63 1.848-7.938 1.846-3.15-.002-5.21-.505-7.96-1.943-3.808-1.992-7.05-5.85-8.36-9.95-.147-.463-4.216-18.99-9.04-41.172-4.826-22.182-8.94-40.728-9.143-41.213-.657-1.573-1.76-2.706-3.444-3.535-1.383-.68-1.843-.786-3.414-.78-3 .008-5.526 1.53-6.708 4.046-.277.59-4.732 21.294-10.618 49.352-5.578 26.584-10.25 48.85-10.385 49.478l-.245 1.142h-5.752c-3.723 0-5.753-.086-5.753-.243zM955.75 57.857V.694l65.366.032c35.95.018 80.357.104 98.68.192l33.314.16 2.405.65c9.876 2.674 17.674 10.59 20.23 20.54.758 2.946 1.022 7.708.592 10.65-1.577 10.787-9.042 19.745-19.225 23.072-3.83 1.25-4.298 1.286-19.396 1.443l-14.192.148-.06 28.685-.062 28.683h-10.58V46.656l18.7-.078c18.587-.076 18.713-.08 20.465-.617 7.85-2.402 12.79-8.97 12.79-17.003 0-8.14-5.28-14.955-13.142-16.966-1.816-.463-2.816-.474-43.608-.474h-41.75l-.06 51.716-.062 51.716h-10.823V11.52l-44.16-.06c-24.29-.034-44.26 0-44.38.074-.13.08-.195 7.408-.16 17.92l.063 17.784 17.26.062 17.257.06V57.94L983.954 58l-17.26.062v45.942l22.672.06 22.67.063v10.58l-26.158.002c-14.387 0-27.05.07-28.143.155l-1.984.154V57.856zM1247.04 114.678c-20.296-1.015-38.87-13.278-47.863-31.6-2.81-5.73-4.475-11.03-5.437-17.32-.606-3.964-.615-12.106-.018-15.995 1.91-12.44 7.216-23.17 15.742-31.84 8.214-8.353 18.255-13.847 29.468-16.122 8.23-1.67 17.483-1.425 25.672.68 16.84 4.328 31.22 16.682 38.122 32.753 3.128 7.284 4.544 14.296 4.538 22.468 0 4.97-.198 7.018-1.082 11.426-5.17 25.79-27.655 44.758-54.092 45.634-1.124.038-3.397 0-5.05-.082zm6.974-10.798c19.035-1.65 35.058-14.555 40.547-32.66 3.38-11.14 2.467-23.054-2.563-33.483-6.75-13.994-19.75-23.556-35.135-25.84-3.293-.49-9.752-.496-13.012-.015-8.786 1.298-16.522 4.725-23.15 10.256-19.368 16.163-22.32 44.357-6.733 64.307 1.724 2.207 5.58 6.076 7.695 7.725 6.873 5.354 15.87 8.933 24.322 9.68 3.382.297 4.89.303 8.03.03zM1319.68 57.82V.695h68.071V114.95h-10.582V63.233c0-34.315-.08-51.715-.24-51.716-12.092-.062-46.286.037-46.443.133-.134.083-.22 20.54-.22 51.718v51.58h-10.585V57.82zM1453.899 114.678c-20.296-1.015-38.87-13.278-47.863-31.6-2.812-5.73-4.476-11.03-5.437-17.32-.606-3.964-.616-12.106-.018-15.995 1.91-12.44 7.215-23.17 15.742-31.84 8.213-8.353 18.254-13.847 29.468-16.122 8.23-1.67 17.482-1.425 25.672.68 16.84 4.328 31.22 16.682 38.12 32.753 3.13 7.284 4.546 14.296 4.54 22.468 0 4.97-.198 7.018-1.082 11.426-5.17 25.79-27.655 44.758-54.092 45.634-1.124.038-3.397 0-5.05-.082zm6.974-10.798c19.034-1.65 35.058-14.555 40.546-32.66 3.38-11.14 2.466-23.054-2.564-33.483-6.748-13.994-19.75-23.556-35.135-25.84-3.29-.49-9.75-.496-13.01-.015-8.786 1.298-16.522 4.725-23.15 10.256-19.368 16.163-22.32 44.357-6.733 64.307 1.724 2.207 5.58 6.076 7.695 7.725 6.873 5.354 15.87 8.933 24.32 9.68 3.384.297 4.89.303 8.032.03zM1528.142 62.6c9.957-39.82 13.264-52.7 13.82-53.82 1.94-3.912 5.267-6.624 9.464-7.714 1.802-.467 4.845-.472 6.805-.01 4.302 1.014 8.317 4.465 9.915 8.52.272.69 6.238 24.492 13.256 52.893 7.02 28.4 12.817 51.826 12.883 52.057.112.393-.263.42-5.53.42h-5.648l-.268-1.26c-7.563-35.627-21.124-97.988-21.467-98.722-1.004-2.15-3.388-3.787-5.953-4.09-1.71-.204-3.95.442-5.416 1.56-2.303 1.756-1.448-1.744-12.91 52.903l-10.406 49.61h-11.631l13.09-52.348zM1606.88 57.822V.694h10.823V87.5l.534.375c.76.532 1.707.463 2.275-.167.268-.298 9.94-19.213 21.492-42.034 11.553-22.82 21.284-41.862 21.624-42.315.34-.454 1.142-1.24 1.782-1.745l1.164-.92h8.616V114.948h-10.822l-.06-43.828-.062-43.828-.662-.37c-1.484-.83-.308-2.996-23.27 42.854-13.236 26.425-21.562 42.787-22.01 43.253-1.475 1.532-1.746 1.603-6.795 1.768l-4.632.152V57.822zM1721.854 63.233V11.518h-34.396V.694h79.618v10.83l-17.14-.01-17.137-.01-.062 51.722-.06 51.72h-10.823V63.234zM1779.342 57.82V.695h56.766v10.828l-22.91-.007-22.912-.007-.062 17.563-.062 17.563h34.4V57.46H1790.164v46.664h45.943v10.824H1779.342V57.82zM1848.135 57.82V.695h10.822l.06 22.91.062 22.912 23.27.062 23.272.06V.695h10.824V114.95h-10.824V57.46h-46.664v57.488h-10.824V57.82zM1928.474 114.578c0-.89 26.07-104.27 26.58-105.397 1.62-3.59 4.45-6.242 8.177-7.668 2.24-.856 5.977-1.065 8.3-.464 4.63 1.2 8.584 4.746 10.082 9.044.372 1.068 25.997 104.294 25.997 104.725 0 .072-2.524.13-5.608.13h-5.607l-3.714-17.257-3.712-17.258-20.861-.062-20.862-.06-.127.54c-.265 1.127-7.1 33.81-7.1 33.952 0 .08-2.597.146-5.772.146-5.034 0-5.773-.047-5.773-.37zm57.968-45.502c0-1.105-11.39-53.227-11.834-54.156-2.12-4.433-8.52-5.402-12.09-1.83-.502.5-1.11 1.358-1.35 1.904-.382.86-11.527 53.217-11.527 54.145 0 .3 2.51.347 18.4.347 17.2 0 18.402-.027 18.402-.41z" fill="#fff"/></svg>